<?xml version="1.0" encoding="UTF-8"?>
<mxfile host="app.diagrams.net" modified="2024-03-18T02:00:00.000Z" agent="Mozilla/5.0" version="22.1.18">
  <diagram id="day5-storage" name="Day 5 - Storage Architecture">
    <mxGraphModel dx="1422" dy="798" grid="1" gridSize="10" guides="1" tooltips="1" connect="1" arrows="1" fold="1" page="1" pageScale="1" pageWidth="1169" pageHeight="827" math="0" shadow="0">
      <root>
        <mxCell id="0"/>
        <mxCell id="1" parent="0"/>
        
        <!-- VPC -->
        <mxCell id="vpc" value="VPC" style="points=[[0,0],[0.25,0],[0.5,0],[0.75,0],[1,0],[1,0.25],[1,0.5],[1,0.75],[1,1],[0.75,1],[0.5,1],[0.25,1],[0,1],[0,0.75],[0,0.5],[0,0.25]];outlineConnect=0;gradientColor=none;html=1;whiteSpace=wrap;fontSize=12;fontStyle=0;container=1;pointerEvents=0;collapsible=0;recursiveResize=0;shape=mxgraph.aws4.group;grIcon=mxgraph.aws4.group_vpc;strokeColor=#248814;fillColor=none;verticalAlign=top;align=left;spacingLeft=30;fontColor=#248814;dashed=0;" vertex="1" parent="1">
          <mxGeometry x="160" y="120" width="720" height="520" as="geometry"/>
        </mxCell>

        <!-- Public Subnet -->
        <mxCell id="public_subnet" value="Public Subnet" style="points=[[0,0],[0.25,0],[0.5,0],[0.75,0],[1,0],[1,0.25],[1,0.5],[1,0.75],[1,1],[0.75,1],[0.5,1],[0.25,1],[0,1],[0,0.75],[0,0.5],[0,0.25]];outlineConnect=0;gradientColor=none;html=1;whiteSpace=wrap;fontSize=12;fontStyle=0;container=1;pointerEvents=0;collapsible=0;recursiveResize=0;shape=mxgraph.aws4.group;grIcon=mxgraph.aws4.group_security_group;grStroke=0;strokeColor=#248814;fillColor=#E9F3E6;verticalAlign=top;align=left;spacingLeft=30;fontColor=#248814;dashed=0;" vertex="1" parent="vpc">
          <mxGeometry x="40" y="80" width="640" height="400" as="geometry"/>
        </mxCell>

        <!-- EC2 Instance -->
        <mxCell id="ec2" value="EC2&#xa;t3.micro" style="sketch=0;points=[[0,0,0],[0.25,0,0],[0.5,0,0],[0.75,0,0],[1,0,0],[0,1,0],[0.25,1,0],[0.5,1,0],[0.75,1,0],[1,1,0],[0,0.25,0],[0,0.5,0],[0,0.75,0],[1,0.25,0],[1,0.5,0],[1,0.75,0]];outlineConnect=0;fontColor=#232F3E;fillColor=#ED7100;strokeColor=#ffffff;dashed=0;verticalLabelPosition=bottom;verticalAlign=top;align=center;html=1;fontSize=12;fontStyle=0;aspect=fixed;shape=mxgraph.aws4.resourceIcon;resIcon=mxgraph.aws4.ec2;" vertex="1" parent="public_subnet">
          <mxGeometry x="280" y="160" width="80" height="80" as="geometry"/>
        </mxCell>

        <!-- EFS -->
        <mxCell id="efs" value="EFS" style="sketch=0;points=[[0,0,0],[0.25,0,0],[0.5,0,0],[0.75,0,0],[1,0,0],[0,1,0],[0.25,1,0],[0.5,1,0],[0.75,1,0],[1,1,0],[0,0.25,0],[0,0.5,0],[0,0.75,0],[1,0.25,0],[1,0.5,0],[1,0.75,0]];outlineConnect=0;fontColor=#232F3E;fillColor=#7AA116;strokeColor=#ffffff;dashed=0;verticalLabelPosition=bottom;verticalAlign=top;align=center;html=1;fontSize=12;fontStyle=0;aspect=fixed;shape=mxgraph.aws4.resourceIcon;resIcon=mxgraph.aws4.efs;" vertex="1" parent="public_subnet">
          <mxGeometry x="480" y="160" width="80" height="80" as="geometry"/>
        </mxCell>

        <!-- EBS Volume -->
        <mxCell id="ebs" value="EBS&#xa;gp3 20GB" style="sketch=0;points=[[0,0,0],[0.25,0,0],[0.5,0,0],[0.75,0,0],[1,0,0],[0,1,0],[0.25,1,0],[0.5,1,0],[0.75,1,0],[1,1,0],[0,0.25,0],[0,0.5,0],[0,0.75,0],[1,0.25,0],[1,0.5,0],[1,0.75,0]];outlineConnect=0;fontColor=#232F3E;fillColor=#7AA116;strokeColor=#ffffff;dashed=0;verticalLabelPosition=bottom;verticalAlign=top;align=center;html=1;fontSize=12;fontStyle=0;aspect=fixed;shape=mxgraph.aws4.resourceIcon;resIcon=mxgraph.aws4.ebs;" vertex="1" parent="public_subnet">
          <mxGeometry x="80" y="160" width="80" height="80" as="geometry"/>
        </mxCell>

        <!-- Internet Gateway -->
        <mxCell id="igw" value="Internet&#xa;Gateway" style="sketch=0;outlineConnect=0;fontColor=#232F3E;gradientColor=none;fillColor=#8C4FFF;strokeColor=none;dashed=0;verticalLabelPosition=bottom;verticalAlign=top;align=center;html=1;fontSize=12;fontStyle=0;aspect=fixed;pointerEvents=1;shape=mxgraph.aws4.internet_gateway;" vertex="1" parent="1">
          <mxGeometry x="480" y="40" width="80" height="80" as="geometry"/>
        </mxCell>

        <!-- S3 Bucket -->
        <mxCell id="s3" value="S3 Bucket&#xa;Lifecycle Rules" style="sketch=0;points=[[0,0,0],[0.25,0,0],[0.5,0,0],[0.75,0,0],[1,0,0],[0,1,0],[0.25,1,0],[0.5,1,0],[0.75,1,0],[1,1,0],[0,0.25,0],[0,0.5,0],[0,0.75,0],[1,0.25,0],[1,0.5,0],[1,0.75,0]];outlineConnect=0;fontColor=#232F3E;fillColor=#7AA116;strokeColor=#ffffff;dashed=0;verticalLabelPosition=bottom;verticalAlign=top;align=center;html=1;fontSize=12;fontStyle=0;aspect=fixed;shape=mxgraph.aws4.resourceIcon;resIcon=mxgraph.aws4.s3;" vertex="1" parent="1">
          <mxGeometry x="920" y="320" width="80" height="80" as="geometry"/>
        </mxCell>

        <!-- Security Groups -->
        <mxCell id="sg_ec2" value="Security Group&#xa;EC2" style="fillColor=none;strokeColor=#DD3522;verticalAlign=top;fontStyle=0;fontColor=#DD3522;whiteSpace=wrap;html=1;" vertex="1" parent="1">
          <mxGeometry x="420" y="260" width="120" height="160" as="geometry"/>
        </mxCell>

        <mxCell id="sg_efs" value="Security Group&#xa;EFS" style="fillColor=none;strokeColor=#DD3522;verticalAlign=top;fontStyle=0;fontColor=#DD3522;whiteSpace=wrap;html=1;" vertex="1" parent="1">
          <mxGeometry x="620" y="260" width="120" height="160" as="geometry"/>
        </mxCell>

        <!-- Connections -->
        <mxCell id="conn1" value="" style="endArrow=classic;html=1;rounded=0;" edge="1" parent="1" source="igw" target="vpc">
          <mxGeometry width="50" height="50" relative="1" as="geometry"/>
        </mxCell>

        <mxCell id="conn2" value="" style="endArrow=classic;startArrow=classic;html=1;rounded=0;" edge="1" parent="1" source="ebs" target="ec2">
          <mxGeometry width="50" height="50" relative="1" as="geometry"/>
        </mxCell>

        <mxCell id="conn3" value="" style="endArrow=classic;startArrow=classic;html=1;rounded=0;" edge="1" parent="1" source="ec2" target="efs">
          <mxGeometry width="50" height="50" relative="1" as="geometry"/>
        </mxCell>

        <mxCell id="conn4" value="" style="endArrow=classic;startArrow=classic;html=1;rounded=0;dashed=1;" edge="1" parent="1" source="ec2" target="s3">
          <mxGeometry width="50" height="50" relative="1" as="geometry"/>
        </mxCell>

      </root>
    </mxGraphModel>
  </diagram>
</mxfile>